<svg width="23" height="23" viewBox="0 0 23 23" fill="none" xmlns="http://www.w3.org/2000/svg">
<path d="M19.4926 18.1361H4.81602C4.57383 18.1361 4.38008 18.0393 4.2832 17.8455C4.13789 17.6518 4.13789 17.4096 4.23477 17.2158L5.49414 14.019L4.23477 2.10333H0.166016V0.74707H4.81602C5.15508 0.74707 5.4457 0.989264 5.49414 1.32833L6.85039 13.9705C6.85039 14.0674 6.85039 14.1643 6.80195 14.3096L5.8332 16.7314H19.4926V18.1361Z" fill="white"/>
<path d="M6.31758 14.7938L6.02695 13.486L21.4785 10.2892V4.81573H5.49414V3.45947H22.1566C22.5441 3.45947 22.8348 3.75009 22.8348 4.13759V10.822C22.8348 11.161 22.5926 11.4032 22.302 11.4517L6.31758 14.7938Z" fill="white"/>
<path d="M20.1709 22.1562C18.7178 22.1562 17.5068 20.9453 17.5068 19.4922C17.5068 18.0391 18.7178 16.8281 20.1709 16.8281C21.624 16.8281 22.835 18.0391 22.835 19.4922C22.835 20.9453 21.624 22.1562 20.1709 22.1562ZM20.1709 18.1359C19.4443 18.1359 18.8146 18.7172 18.8146 19.4922C18.8146 20.2672 19.3959 20.8484 20.1709 20.8484C20.9459 20.8484 21.5271 20.2672 21.5271 19.4922C21.5271 18.7172 20.8975 18.1359 20.1709 18.1359Z" fill="white"/>
<path d="M4.18652 22.1562C2.7334 22.1562 1.52246 20.9453 1.52246 19.4922C1.52246 18.0391 2.7334 16.8281 4.18652 16.8281C5.63965 16.8281 6.85059 18.0391 6.85059 19.4922C6.85059 20.9453 5.63965 22.1562 4.18652 22.1562ZM4.18652 18.1359C3.45996 18.1359 2.83027 18.7172 2.83027 19.4922C2.83027 20.2672 3.41152 20.8484 4.18652 20.8484C4.96152 20.8484 5.54277 20.2672 5.54277 19.4922C5.54277 18.7172 4.91309 18.1359 4.18652 18.1359Z" fill="white"/>
</svg>
