<svg width="20" height="19" viewBox="0 0 20 19" fill="none" xmlns="http://www.w3.org/2000/svg">
<path d="M10.0312 4.55859C7.3497 4.55859 5.12793 6.74206 5.12793 9.46182C5.12793 12.1816 7.3114 14.365 10.0312 14.365C12.7509 14.365 14.9344 12.1433 14.9344 9.46182C14.9344 6.78037 12.7126 4.55859 10.0312 4.55859ZM10.0312 12.6029C8.30737 12.6029 6.89003 11.1856 6.89003 9.46182C6.89003 7.73803 8.30737 6.32069 10.0312 6.32069C11.7549 6.32069 13.1723 7.73803 13.1723 9.46182C13.1723 11.1856 11.7549 12.6029 10.0312 12.6029Z" fill="white"/>
<path d="M15.1255 5.55429C15.7391 5.55429 16.2364 5.05693 16.2364 4.44341C16.2364 3.82988 15.7391 3.33252 15.1255 3.33252C14.512 3.33252 14.0146 3.82988 14.0146 4.44341C14.0146 5.05693 14.512 5.55429 15.1255 5.55429Z" fill="white"/>
<path d="M17.999 1.57056C17.003 0.53629 15.5857 0 13.9768 0H6.08568C2.75302 0 0.53125 2.22177 0.53125 5.55443V13.4073C0.53125 15.0544 1.06754 16.4718 2.14012 17.506C3.17439 18.502 4.55343 19 6.12399 19H13.9385C15.5857 19 16.9647 18.4637 17.9607 17.506C18.995 16.5101 19.5312 15.0927 19.5312 13.4456V5.55443C19.5312 3.94556 18.995 2.56653 17.999 1.57056ZM17.8458 13.4456C17.8458 14.6331 17.4244 15.5907 16.7349 16.2419C16.0454 16.8931 15.0877 17.2379 13.9385 17.2379H6.12399C4.9748 17.2379 4.01714 16.8931 3.32762 16.2419C2.6381 15.5524 2.29335 14.5948 2.29335 13.4073V5.55443C2.29335 4.40524 2.6381 3.44758 3.32762 2.75806C3.97883 2.10685 4.9748 1.7621 6.12399 1.7621H14.0151C15.1643 1.7621 16.122 2.10685 16.8115 2.79637C17.4627 3.48589 17.8458 4.44355 17.8458 5.55443V13.4456Z" fill="white"/>
</svg>
