<svg width="28" height="28" viewBox="0 0 28 28" fill="none" xmlns="http://www.w3.org/2000/svg">
<path d="M9 0V9H13.6V5.86047L9 0Z" fill="#E25730"/>
<path d="M0 9L9 9L9 13.6L5.86046 13.6L0 9Z" fill="#E25730"/>
<path d="M9 9H13.6V12.2L13.0334 12.861L12.4 13.6H9V9Z" fill="#E25730"/>
<path d="M28 9L19 9L19 13.6L22.1395 13.6L28 9Z" fill="#CF1A1E"/>
<path d="M19 0L19 9L14.4 9L14.4 5.86046L19 0Z" fill="#CF1A1E"/>
<path d="M19 9L19 13.6L15.8 13.6L15.139 13.0334L14.4 12.4L14.4 9L19 9Z" fill="#CF1A1E"/>
<path d="M0 19L9 19L9 14.4L5.86046 14.4L0 19Z" fill="#DE0E72"/>
<path d="M9 28L9 19L13.6 19L13.6 22.1395L9 28Z" fill="#DE0E72"/>
<path d="M9 19L9 14.4L12.2 14.4L12.861 14.9666L13.6 15.6L13.6 19L9 19Z" fill="#DE0E72"/>
<path d="M19 28L19 19L14.4 19L14.4 22.1395L19 28Z" fill="#E25730"/>
<path d="M28 19L19 19L19 14.4L22.1395 14.4L28 19Z" fill="#E25730"/>
<path d="M19 19L14.4 19L14.4 15.8L14.9666 15.139L15.6 14.4L19 14.4L19 19Z" fill="#E25730"/>
<path d="M14.0004 12.3999L14.4325 13.5678L15.6004 13.9999L14.4325 14.432L14.0004 15.5999L13.5682 14.432L12.4004 13.9999L13.5682 13.5678L14.0004 12.3999Z" fill="#1B7050"/>
</svg>
