<svg width="19" height="19" viewBox="0 0 19 19" fill="none" xmlns="http://www.w3.org/2000/svg">
<path d="M16.9647 13.1471C16.9647 13.338 16.9294 13.5871 16.8587 13.8946C16.788 14.2021 16.7138 14.4442 16.636 14.6209C16.4876 14.9743 16.0564 15.3489 15.3425 15.7448C14.6781 16.1053 14.0207 16.2855 13.3704 16.2855C13.1795 16.2855 12.994 16.2731 12.8138 16.2484C12.6335 16.2237 12.4303 16.1795 12.2041 16.1159C11.9779 16.0522 11.81 16.001 11.7005 15.9621C11.5909 15.9232 11.3948 15.8508 11.112 15.7448C10.8293 15.6387 10.6561 15.5751 10.5925 15.5539C9.89979 15.3065 9.2813 15.0132 8.73703 14.6739C7.83226 14.1155 6.89746 13.3539 5.93262 12.389C4.96777 11.4242 4.20615 10.4894 3.64774 9.58461C3.30845 9.04034 3.01511 8.42185 2.76772 7.72914C2.74651 7.66553 2.6829 7.49235 2.57687 7.20961C2.47084 6.92687 2.39839 6.73072 2.35951 6.62116C2.32064 6.5116 2.26939 6.34373 2.20578 6.11754C2.14216 5.89135 2.09798 5.68813 2.07324 5.50788C2.0485 5.32764 2.03613 5.14209 2.03613 4.95124C2.03613 4.30094 2.21638 3.64358 2.57687 2.97914C2.9727 2.26523 3.34733 1.83405 3.70075 1.68562C3.87746 1.60786 4.11956 1.53364 4.42704 1.46296C4.73451 1.39228 4.98368 1.35693 5.17453 1.35693C5.27348 1.35693 5.3477 1.36754 5.39718 1.38874C5.52441 1.43115 5.71173 1.69975 5.95912 2.19455C6.03688 2.32885 6.1429 2.51969 6.2772 2.76709C6.41151 3.01449 6.5352 3.23891 6.6483 3.44036C6.76139 3.64181 6.87095 3.83089 6.97698 4.0076C6.99819 4.03588 7.06004 4.12423 7.16253 4.27267C7.26502 4.42111 7.34101 4.54657 7.39049 4.64907C7.43996 4.75156 7.4647 4.85228 7.4647 4.95124C7.4647 5.09261 7.36398 5.26932 7.16253 5.48138C6.96108 5.69343 6.74196 5.88781 6.50516 6.06452C6.26837 6.24123 6.04925 6.42855 5.8478 6.62647C5.64635 6.82438 5.54562 6.98696 5.54562 7.11419C5.54562 7.1778 5.56329 7.25732 5.59863 7.35275C5.63398 7.44817 5.66402 7.52062 5.68876 7.5701C5.7135 7.61958 5.76297 7.7044 5.83719 7.82457C5.91141 7.94473 5.95206 8.01188 5.95912 8.02602C6.49633 8.9944 7.11128 9.82494 7.80399 10.5176C8.4967 11.2104 9.32724 11.8253 10.2956 12.3625C10.3098 12.3696 10.3769 12.4102 10.4971 12.4844C10.6172 12.5587 10.7021 12.6081 10.7515 12.6329C10.801 12.6576 10.8735 12.6877 10.9689 12.723C11.0643 12.7583 11.1438 12.776 11.2074 12.776C11.3347 12.776 11.4973 12.6753 11.6952 12.4738C11.8931 12.2724 12.0804 12.0533 12.2571 11.8165C12.4338 11.5797 12.6282 11.3606 12.8403 11.1591C13.0523 10.9577 13.229 10.8569 13.3704 10.8569C13.4694 10.8569 13.5701 10.8817 13.6726 10.9312C13.7751 10.9806 13.9005 11.0566 14.049 11.1591C14.1974 11.2616 14.2858 11.3235 14.314 11.3447C14.4907 11.4507 14.6798 11.5602 14.8813 11.6733C15.0827 11.7864 15.3072 11.9101 15.5545 12.0444C15.8019 12.1787 15.9928 12.2848 16.1271 12.3625C16.6219 12.6099 16.8905 12.7972 16.9329 12.9245C16.9541 12.9739 16.9647 13.0482 16.9647 13.1471Z" fill="white"/>
</svg>
