<svg width="19" height="22" viewBox="0 0 19 22" fill="none" xmlns="http://www.w3.org/2000/svg">
<path d="M2.85938 7.57031C2.85938 11.2227 5.84766 14.2109 9.5 14.2109C13.1523 14.2109 16.1406 11.2227 16.1406 7.57031C16.1406 3.91797 13.1523 0.929688 9.5 0.929688C5.84766 0.929688 2.85938 3.91797 2.85938 7.57031ZM14.5781 7.57031C14.5781 10.3633 12.293 12.6484 9.5 12.6484C6.70703 12.6484 4.42188 10.3633 4.42188 7.57031C4.42188 4.77734 6.70703 2.49219 9.5 2.49219C12.293 2.49219 14.5781 4.77734 14.5781 7.57031Z" fill="white"/>
<path d="M1.76562 21.3203C3.83594 19.25 6.57031 18.1172 9.5 18.1172C12.4297 18.1172 15.1641 19.25 17.2344 21.3203L18.3477 20.207C15.9844 17.8633 12.8398 16.5547 9.5 16.5547C6.16016 16.5547 3.01563 17.8633 0.652344 20.207L1.76562 21.3203Z" fill="white"/>
</svg>
